<?xml version="1.0" standalone="no"?>
<!DOCTYPE svg PUBLIC "-//W3C//DTD SVG 20010904//EN"
 "http://www.w3.org/TR/2001/REC-SVG-20010904/DTD/svg10.dtd">
<svg version="1.0" xmlns="http://www.w3.org/2000/svg"
 width="300.000000pt" height="161.000000pt" viewBox="0 0 300.000000 161.000000"
 preserveAspectRatio="xMidYMid meet">

<g transform="translate(0.000000,161.000000) scale(0.100000,-0.100000)"
fill="#000000" stroke="none">
<path d="M1390 1599 c-248 -38 -453 -186 -561 -404 -63 -130 -71 -173 -76
-412 l-5 -213 471 0 c307 0 471 3 471 10 0 6 -155 11 -442 12 -244 0 -449 1
-455 1 -10 -1 -13 42 -13 182 0 207 15 289 74 410 132 267 433 432 724 395 42
-6 84 -13 94 -16 10 -3 18 -1 18 4 0 25 -201 46 -300 31z"/>
<path d="M1322 1531 c-110 -30 -223 -94 -301 -170 -161 -156 -221 -325 -221
-624 0 -78 3 -109 13 -113 7 -2 100 -3 207 -2 l195 3 -45 27 c-25 14 -67 49
-92 76 -84 90 -118 185 -118 334 l0 81 119 -5 120 -5 6 26 c8 32 86 171 96
171 13 0 126 -69 158 -96 l31 -26 30 25 c16 14 54 39 85 57 30 17 53 36 50 41
-4 5 0 6 8 3 8 -3 18 0 23 7 5 8 3 10 -7 4 -12 -7 -12 -6 -1 7 9 12 13 41 11
92 -3 74 -4 76 -34 87 -16 6 -82 13 -145 15 -93 3 -129 0 -188 -15z"/>
<path d="M1273 1233 c-17 -32 -36 -70 -42 -85 -10 -26 -8 -28 32 -47 23 -10
57 -31 76 -45 19 -14 38 -26 41 -26 3 0 12 17 19 38 8 20 27 56 43 79 l28 42
-32 24 c-33 25 -121 77 -129 77 -2 0 -19 -26 -36 -57z"/>
<path d="M1662 1283 c-6 -3 -9 -10 -6 -15 4 -7 2 -8 -4 -4 -13 8 -90 -34 -117
-64 -17 -18 -17 -22 -2 -37 8 -10 28 -45 44 -79 l29 -61 45 40 c24 22 37 36
29 31 -12 -6 -13 -5 -3 7 10 13 13 173 2 182 -2 2 -10 2 -17 0z"/>
<path d="M1477 1143 c-19 -22 -67 -122 -67 -142 0 -8 6 -22 14 -30 8 -9 26
-40 41 -69 l26 -52 27 52 c15 29 34 63 42 75 12 18 12 28 0 62 -7 22 -25 58
-40 81 -25 38 -28 39 -43 23z"/>
<path d="M992 1018 c6 -120 33 -190 99 -263 71 -77 158 -119 259 -124 l75 -3
-60 40 c-117 79 -185 209 -185 357 0 85 1 85 -119 85 l-73 0 4 -92z"/>
<path d="M1212 996 c9 -135 79 -254 187 -314 l40 -23 -31 68 c-28 58 -33 82
-36 163 -3 69 -9 100 -21 114 -24 28 -102 76 -124 76 -19 0 -19 -6 -15 -84z"/>
<path d="M1659 1023 c-12 -14 -12 -16 0 -8 9 5 12 4 7 -3 -4 -6 -13 -9 -20 -6
-22 9 -31 -17 -28 -81 3 -69 -19 -161 -53 -222 l-23 -43 30 16 c17 9 49 33 72
54 l42 39 2 125 c1 93 -2 126 -11 126 -7 0 -6 4 3 10 8 5 10 10 4 10 -6 0 -18
-8 -25 -17z m21 -247 c0 -2 -8 -10 -17 -17 -16 -13 -17 -12 -4 4 13 16 21 21
21 13z"/>
<path d="M1400 896 c0 -52 33 -162 58 -194 17 -22 17 -21 12 50 -6 66 -47 188
-64 188 -4 0 -6 -20 -6 -44z"/>
<path d="M1546 880 c-21 -46 -30 -84 -33 -135 l-3 -70 30 59 c31 64 44 120 38
176 -3 35 -3 35 -32 -30z"/>
<path d="M1664 698 c-12 -14 -14 -18 -4 -13 8 4 12 4 7 0 -4 -5 -13 -10 -20
-11 -7 -1 -28 -11 -47 -23 l-35 -21 50 0 c28 0 55 4 60 8 13 9 15 52 2 52 -5
0 -4 7 3 15 20 24 5 18 -16 -7z"/>
<path d="M191 501 c-16 -16 -21 -34 -21 -71 0 -46 -2 -50 -24 -50 -22 0 -25 5
-28 43 -3 39 -5 42 -34 45 -42 4 -84 -29 -68 -55 13 -21 35 -24 41 -5 3 7 -4
12 -16 12 -12 0 -21 4 -21 10 0 10 32 30 49 30 15 0 14 -77 -1 -83 -10 -4 -10
-6 0 -6 15 -1 16 -84 1 -113 -9 -16 -17 -19 -42 -14 -26 4 -28 4 -14 -5 25
-14 74 -2 92 24 8 12 15 41 15 64 0 39 2 43 25 43 23 0 25 -3 25 -50 0 -45 2
-50 23 -50 20 0 22 4 18 46 -2 32 1 49 10 55 10 6 11 9 2 9 -16 0 -18 116 -3
125 6 4 18 1 27 -7 14 -11 16 -11 11 2 -7 23 -44 24 -67 1z"/>
<path d="M2921 494 c-14 -18 -21 -41 -21 -70 0 -40 -2 -44 -25 -44 -23 0 -25
4 -25 45 0 44 -1 45 -32 45 -43 -1 -70 -22 -66 -52 3 -24 28 -32 36 -10 2 6
-3 12 -12 12 -9 0 -16 4 -16 8 0 12 23 32 37 32 17 0 18 -76 1 -83 -10 -4 -10
-6 0 -6 19 -1 16 -105 -4 -122 -13 -10 -19 -10 -36 0 -16 10 -19 10 -16 -1 7
-18 65 -14 89 8 14 12 19 30 19 66 0 44 2 48 24 48 23 0 25 -5 28 -47 2 -39 7
-49 23 -51 18 -2 20 2 17 48 -3 37 0 50 10 50 10 0 11 2 0 9 -9 5 -12 26 -10
67 3 59 3 59 33 57 22 -2 26 0 15 7 -26 16 -48 11 -69 -16z"/>
<path d="M337 457 c-12 -8 -18 -22 -15 -38 3 -25 28 -33 36 -11 2 6 -3 12 -12
12 -19 0 -21 11 -4 28 15 15 48 16 48 1 0 -39 -25 -102 -44 -109 -17 -7 -17
-9 -4 -9 15 -1 16 -5 6 -27 -10 -21 -17 -25 -40 -20 -18 3 -27 2 -23 -4 14
-22 56 -10 73 20 22 39 67 42 76 5 5 -18 13 -25 32 -25 22 0 24 2 13 22 -9 17
-9 23 0 26 9 3 8 7 -3 16 -8 6 -23 36 -33 66 -17 52 -20 55 -53 58 -19 2 -43
-3 -53 -11z m73 -59 c0 -7 3 -23 6 -35 5 -19 2 -23 -16 -23 -18 0 -21 4 -16
23 3 12 6 28 6 35 0 6 5 12 10 12 6 0 10 -6 10 -12z"/>
<path d="M612 459 c14 -8 17 -23 15 -85 -1 -54 2 -77 11 -83 8 -5 62 -9 120
-9 l107 0 -5 91 c-4 82 -7 92 -25 95 -19 3 -20 -3 -20 -85 0 -78 -2 -88 -19
-91 -28 -6 -36 15 -36 101 0 71 -2 77 -21 77 -19 0 -20 -5 -17 -85 3 -75 1
-86 -15 -91 -36 -11 -50 15 -43 84 8 72 -2 92 -43 92 -22 -1 -23 -2 -9 -11z"/>
<path d="M1118 463 c8 -3 12 -32 12 -94 0 -82 1 -89 20 -89 19 0 20 7 20 91 0
81 2 90 18 87 13 -3 17 -14 17 -51 0 -52 4 -56 28 -29 43 47 4 92 -78 91 -27
0 -44 -3 -37 -6z"/>
<path d="M1378 429 c3 -28 0 -44 -9 -50 -10 -6 -11 -9 -1 -9 7 0 12 -13 12
-33 0 -18 5 -38 12 -45 14 -14 67 -16 87 -3 10 7 4 9 -20 8 -32 -2 -34 0 -37
35 -3 33 -1 37 25 41 l28 4 -27 2 c-26 1 -28 4 -28 42 0 41 0 41 35 37 19 -2
35 0 35 4 0 4 -26 8 -58 8 l-58 0 4 -41z"/>
<path d="M1602 447 c-42 -45 -37 -163 8 -187 24 -13 61 -13 80 0 11 7 6 8 -17
4 -25 -5 -33 -2 -42 14 -30 57 -17 173 22 180 10 2 17 -3 17 -12 0 -22 19 -30
27 -11 14 38 -62 48 -95 12z"/>
<path d="M1827 462 c7 -5 13 -40 15 -92 3 -71 6 -85 21 -88 15 -3 17 6 17 89
l0 92 30 -6 c17 -4 30 -2 30 3 0 6 -28 10 -62 10 -35 0 -58 -4 -51 -8z"/>
<path d="M2022 446 c-39 -42 -36 -121 6 -152 44 -34 114 -6 128 51 8 34 -3 90
-22 106 -27 22 -90 20 -112 -5z m53 3 c5 9 10 9 21 0 33 -27 26 -150 -9 -157
-34 -7 -47 17 -47 88 0 66 7 91 21 69 5 -8 8 -8 14 0z"/>
<path d="M2056 415 c4 -8 10 -15 15 -15 4 0 6 7 3 15 -4 8 -10 15 -15 15 -4 0
-6 -7 -3 -15z"/>
<path d="M2288 463 c8 -3 12 -32 12 -94 0 -82 1 -89 20 -89 19 0 20 7 20 91 0
81 2 90 18 87 13 -3 17 -14 17 -51 0 -52 4 -56 28 -29 43 47 4 92 -78 91 -27
0 -44 -3 -37 -6z"/>
<path d="M2553 463 c20 -5 21 -18 6 -79 -8 -29 -17 -44 -28 -44 -13 0 -13 -2
-2 -9 10 -7 11 -13 1 -31 -10 -18 -18 -21 -41 -16 -19 3 -28 2 -24 -4 17 -27
85 4 85 38 0 7 13 12 28 12 21 0 32 -7 40 -25 7 -15 20 -25 32 -25 18 0 19 3
9 21 -8 16 -8 23 1 29 9 5 8 9 -3 13 -8 3 -20 27 -26 54 -16 61 -26 73 -65 72
-17 -1 -23 -3 -13 -6z m46 -105 c1 -12 -6 -18 -19 -18 -17 0 -19 4 -14 28 4
15 9 31 12 36 6 11 20 -20 21 -46z"/>
<path d="M569 439 c-9 -17 -8 -25 4 -36 8 -9 20 -12 26 -9 16 11 13 26 -5 26
-11 0 -15 6 -11 20 7 26 1 25 -14 -1z"/>
<path d="M1082 451 c-18 -11 -11 -56 7 -56 8 0 16 6 19 13 2 6 -3 12 -12 12
-19 0 -21 11 -4 28 14 14 9 15 -10 3z"/>
<path d="M1330 445 c-6 -8 -10 -22 -8 -32 4 -23 38 -30 38 -8 0 11 -5 15 -15
11 -18 -7 -20 15 -3 32 7 7 9 12 6 12 -3 0 -11 -7 -18 -15z"/>
<path d="M1782 448 c-20 -20 -15 -58 8 -58 11 0 20 7 20 15 0 9 -6 12 -15 9
-21 -9 -19 23 3 35 9 6 12 11 7 11 -6 0 -16 -5 -23 -12z"/>
<path d="M2252 451 c-18 -11 -11 -56 7 -56 8 0 16 6 19 13 2 6 -3 12 -12 12
-19 0 -21 11 -4 28 14 14 9 15 -10 3z"/>
<path d="M2510 445 c-6 -8 -10 -22 -8 -32 4 -20 29 -24 36 -5 2 6 -3 12 -12
12 -19 0 -21 11 -4 28 7 7 9 12 6 12 -3 0 -11 -7 -18 -15z"/>
<path d="M483 90 c0 -30 2 -43 4 -28 2 16 2 40 0 55 -2 16 -4 3 -4 -27z"/>
<path d="M653 81 c5 -42 17 -52 17 -13 0 17 -4 34 -10 37 -6 4 -9 -6 -7 -24z"/>
<path d="M778 68 c5 -71 10 -77 11 -15 0 31 -2 57 -7 57 -4 0 -6 -19 -4 -42z"/>
<path d="M815 75 c0 -18 3 -31 8 -28 4 2 7 15 7 28 0 13 -3 26 -7 28 -5 3 -8
-10 -8 -28z"/>
<path d="M950 99 c0 -8 7 -24 15 -35 18 -24 19 -7 0 26 -9 16 -14 19 -15 9z"/>
<path d="M991 103 c-1 -18 19 -67 25 -61 3 3 -2 21 -10 39 -8 19 -15 29 -15
22z"/>
<path d="M1125 89 c-4 -12 -3 -25 2 -29 4 -5 8 4 9 21 1 34 -2 37 -11 8z"/>
<path d="M1164 75 c0 -21 3 -30 8 -22 10 16 10 44 0 51 -4 2 -8 -11 -8 -29z"/>
<path d="M1280 77 c0 -20 4 -37 9 -37 4 0 7 14 5 32 -6 45 -14 48 -14 5z"/>
<path d="M1320 82 c0 -17 4 -33 8 -36 10 -6 9 50 -1 60 -4 4 -7 -7 -7 -24z"/>
<path d="M1440 81 c0 -17 5 -33 10 -36 6 -4 10 8 10 29 0 20 -4 36 -10 36 -5
0 -10 -13 -10 -29z"/>
<path d="M1480 81 c0 -17 5 -33 10 -36 6 -4 10 8 10 29 0 20 -4 36 -10 36 -5
0 -10 -13 -10 -29z"/>
<path d="M1609 105 c-5 -19 -3 -62 3 -59 4 3 6 18 5 34 -2 28 -5 37 -8 25z"/>
<path d="M1640 75 c0 -19 4 -35 8 -35 4 0 6 16 4 35 -2 19 -6 35 -8 35 -2 0
-4 -16 -4 -35z"/>
<path d="M1877 103 c-2 -5 0 -21 4 -38 7 -29 7 -29 8 8 1 35 -3 46 -12 30z"/>
<path d="M2030 77 c0 -20 4 -37 9 -37 10 0 8 57 -3 67 -3 3 -6 -10 -6 -30z"/>
<path d="M2066 94 c-6 -14 9 -54 20 -54 2 0 0 9 -6 21 -9 15 -8 24 1 35 7 8 7
14 1 14 -5 0 -13 -7 -16 -16z"/>
<path d="M2195 94 c4 -10 10 -29 12 -41 3 -13 9 -20 14 -18 10 7 -9 62 -24 72
-7 4 -8 0 -2 -13z"/>
<path d="M2520 81 c0 -16 5 -33 10 -36 6 -4 10 6 10 24 0 16 -4 33 -10 36 -6
4 -10 -6 -10 -24z"/>
<path d="M2344 85 c-8 -19 2 -45 17 -45 8 0 8 4 -1 15 -7 8 -10 22 -6 30 3 8
3 15 0 15 -2 0 -7 -7 -10 -15z"/>
<path d="M1914 60 c0 -13 4 -16 10 -10 7 7 7 13 0 20 -6 6 -10 3 -10 -10z"/>
<path d="M620 55 c0 -8 4 -15 10 -15 5 0 7 7 4 15 -4 8 -8 15 -10 15 -2 0 -4
-7 -4 -15z"/>
<path d="M2491 54 c0 -11 3 -14 6 -6 3 7 2 16 -1 19 -3 4 -6 -2 -5 -13z"/>
</g>
</svg>
